# xmcd
#
# Track frame offsets:
#	150
#	16560
#	33270
#
# Disc length: 676 seconds
#
# Revision: 3
# Processed by: cddbd v1.5.2PL0 Copyright (c) Steve Scherf et al.
# Submitted via: EasyCDDAExtractor 11.0.2.1
#
DISCID=1102a203
DTITLE=Taja Sevelle - I and I (1998)
DYEAR=1998
DGENRE=Pop
TTITLE0=I and I (Album Version)
TTITLE1=I and I (Mass Order Remix)
TTITLE2=Why
EXTD=YEAR: 1995
EXTT0=
EXTT1=
EXTT2=
PLAYORDER=
